<svg xmlns="http://www.w3.org/2000/svg" xmlns:xlink="http://www.w3.org/1999/xlink" aria-hidden="true" focusable="false" width="1em" height="1em" style="-ms-transform: rotate(360deg); -webkit-transform: rotate(360deg); transform: rotate(360deg);" preserveAspectRatio="xMidYMid meet" viewBox="0 0 24 24"><g class="icon-tabler" fill="none" stroke="#626262" stroke-width="2" stroke-linecap="round" stroke-linejoin="round"><path d="M9 4h3l2 2h5a2 2 0 0 1 2 2v7a2 2 0 0 1-2 2H9a2 2 0 0 1-2-2V6a2 2 0 0 1 2-2"/><path d="M17 17v2a2 2 0 0 1-2 2H5a2 2 0 0 1-2-2v-9a2 2 0 0 1 2-2h2"/></g></svg>
