<svg xmlns="http://www.w3.org/2000/svg" xmlns:xlink="http://www.w3.org/1999/xlink" aria-hidden="true" focusable="false" width="1em" height="1em" style="-ms-transform: rotate(360deg); -webkit-transform: rotate(360deg); transform: rotate(360deg);" preserveAspectRatio="xMidYMid meet" viewBox="0 0 24 24"><path d="M4 7h3a1 1 0 0 0 1-1V5a2 2 0 0 1 4 0v1a1 1 0 0 0 1 1h3a1 1 0 0 1 1 1v3a1 1 0 0 0 1 1h1a2 2 0 0 1 0 4h-1a1 1 0 0 0-1 1v3a1 1 0 0 1-1 1h-3a1 1 0 0 1-1-1v-1a2 2 0 0 0-4 0v1a1 1 0 0 1-1 1H4a1 1 0 0 1-1-1v-3a1 1 0 0 1 1-1h1a2 2 0 0 0 0-4H4a1 1 0 0 1-1-1V8a1 1 0 0 1 1-1" fill="none" stroke="#626262" stroke-width="2" stroke-linecap="round" stroke-linejoin="round"/></svg>
