<?xml version="1.0" encoding="iso-8859-1"?>
<!-- Generator: Adobe Illustrator 19.0.0, SVG Export Plug-In . SVG Version: 6.00 Build 0)  -->
<svg version="1.1" id="Layer_1" xmlns="http://www.w3.org/2000/svg" xmlns:xlink="http://www.w3.org/1999/xlink" x="0px" y="0px"
	 viewBox="0 0 512 512" style="enable-background:new 0 0 512 512;" xml:space="preserve">
<g transform="translate(1 1)">
	<g>
		<g>
			<path d="M468.333-1H144.067H75.8C61.293-1,50.2,10.093,50.2,24.6v0.825c-19.681,3.86-34.133,20.878-34.133,41.841
				c0,20.963,14.452,37.981,34.133,41.841v10.184c-19.681,3.86-34.133,20.878-34.133,41.841c0,20.963,14.452,37.981,34.133,41.841
				v10.184c-19.681,3.86-34.133,20.878-34.133,41.841c0,20.963,14.452,37.981,34.133,41.841v10.184
				c-19.681,3.86-34.133,20.878-34.133,41.841c0,20.963,14.452,37.981,34.133,41.841v10.184
				c-19.681,3.86-34.133,20.878-34.133,41.841c0,20.963,14.452,37.981,34.133,41.841v0.825c0,14.507,11.093,25.6,25.6,25.6h68.267
				h324.267c14.507,0,25.6-11.093,25.6-25.6V24.6C493.933,10.093,482.84-1,468.333-1z M33.133,67.267
				c0-11.491,6.963-20.833,17.067-24.224v48.448C40.097,88.1,33.133,78.757,33.133,67.267z M33.133,161.133
				c0-11.491,6.963-20.833,17.067-24.224v48.448C40.097,181.967,33.133,172.624,33.133,161.133z M33.133,255
				c0-11.491,6.963-20.833,17.067-24.224v48.448C40.097,275.833,33.133,266.491,33.133,255z M33.133,348.867
				c0-11.491,6.963-20.833,17.067-24.224v48.448C40.097,369.7,33.133,360.357,33.133,348.867z M33.133,442.733
				c0-11.491,6.963-20.833,17.067-24.224v48.448C40.097,463.567,33.133,454.224,33.133,442.733z M67.267,485.4v-66.891
				c10.103,3.391,17.067,12.734,17.067,24.224c0,5.12,3.413,8.533,8.533,8.533s8.533-3.413,8.533-8.533
				c0-20.963-14.452-37.981-34.133-41.841v-76.25c10.103,3.391,17.067,12.734,17.067,24.224c0,5.12,3.413,8.533,8.533,8.533
				s8.533-3.413,8.533-8.533c0-20.963-14.452-37.981-34.133-41.841v-76.25C77.37,234.167,84.333,243.509,84.333,255
				c0,5.12,3.413,8.533,8.533,8.533S101.4,260.12,101.4,255c0-20.963-14.452-37.981-34.133-41.841v-76.25
				c10.103,3.391,17.067,12.734,17.067,24.224c0,5.12,3.413,8.533,8.533,8.533s8.533-3.413,8.533-8.533
				c0-20.963-14.452-37.981-34.133-41.841v-76.25c10.103,3.391,17.067,12.734,17.067,24.224c0,5.12,3.413,8.533,8.533,8.533
				s8.533-3.413,8.533-8.533c0-20.963-14.452-37.981-34.133-41.841V24.6c0-5.12,3.413-8.533,8.533-8.533h59.733v477.867H75.8
				C70.68,493.933,67.267,490.52,67.267,485.4z M476.867,485.4c0,5.12-3.413,8.533-8.533,8.533H152.6V16.067h315.733
				c5.12,0,8.533,3.413,8.533,8.533V485.4z"/>
			<path d="M240.493,184.173c1.707,1.707,3.413,2.56,5.973,2.56s4.267-0.853,5.973-2.56l2.56-2.56V229.4
				c0,5.12,3.413,8.533,8.533,8.533h102.4c5.12,0,8.533-3.413,8.533-8.533v-47.787l2.56,2.56c1.707,1.707,3.413,2.56,5.973,2.56
				s4.267-0.853,5.973-2.56l25.6-25.6c1.707-1.707,2.56-3.413,2.56-5.973c0-2.56-0.853-4.267-2.56-5.973L320.707,52.76
				c-1.707-1.707-3.413-2.56-5.973-2.56s-4.267,0.853-5.973,2.56l-93.867,93.867c-3.413,3.413-3.413,8.533,0,11.947L240.493,184.173
				z M357.4,220.867h-85.333v-56.32l42.667-42.667l42.667,42.667V220.867z M314.733,70.68l81.92,81.92L383,166.253l-11.092-11.092
				c0,0-0.001-0.001-0.001-0.001l-51.2-51.2c-0.853-1.707-2.56-2.56-4.267-2.56c0,0-0.853,0-1.707,0c-2.56,0-4.267,0.853-5.973,2.56
				l-51.2,51.2c0,0-0.001,0.001-0.001,0.001l-11.092,11.092L232.813,152.6L314.733,70.68z"/>
			<path d="M195.267,323.267H280.6c5.12,0,8.533-3.413,8.533-8.533s-3.413-8.533-8.533-8.533h-85.333
				c-5.12,0-8.533,3.413-8.533,8.533S190.147,323.267,195.267,323.267z"/>
			<path d="M314.733,306.2c-5.12,0-8.533,3.413-8.533,8.533s3.413,8.533,8.533,8.533h59.733c5.12,0,8.533-3.413,8.533-8.533
				s-3.413-8.533-8.533-8.533H314.733z"/>
			<path d="M434.2,306.2h-25.6c-5.12,0-8.533,3.413-8.533,8.533s3.413,8.533,8.533,8.533h25.6c5.12,0,8.533-3.413,8.533-8.533
				S439.32,306.2,434.2,306.2z"/>
			<path d="M434.2,357.4h-59.733c-5.12,0-8.533,3.413-8.533,8.533s3.413,8.533,8.533,8.533H434.2c5.12,0,8.533-3.413,8.533-8.533
				S439.32,357.4,434.2,357.4z"/>
			<path d="M348.867,365.933c0-5.12-3.413-8.533-8.533-8.533h-68.267c-5.12,0-8.533,3.413-8.533,8.533s3.413,8.533,8.533,8.533
				h68.267C345.453,374.467,348.867,371.053,348.867,365.933z"/>
			<path d="M195.267,374.467h42.667c5.12,0,8.533-3.413,8.533-8.533s-3.413-8.533-8.533-8.533h-42.667
				c-5.12,0-8.533,3.413-8.533,8.533S190.147,374.467,195.267,374.467z"/>
			<path d="M255,408.6h-59.733c-5.12,0-8.533,3.413-8.533,8.533s3.413,8.533,8.533,8.533H255c5.12,0,8.533-3.413,8.533-8.533
				S260.12,408.6,255,408.6z"/>
			<path d="M365.933,408.6h-76.8c-5.12,0-8.533,3.413-8.533,8.533s3.413,8.533,8.533,8.533h76.8c5.12,0,8.533-3.413,8.533-8.533
				S371.053,408.6,365.933,408.6z"/>
			<path d="M434.2,408.6h-34.133c-5.12,0-8.533,3.413-8.533,8.533s3.413,8.533,8.533,8.533H434.2c5.12,0,8.533-3.413,8.533-8.533
				S439.32,408.6,434.2,408.6z"/>
		</g>
	</g>
</g>
<g>
</g>
<g>
</g>
<g>
</g>
<g>
</g>
<g>
</g>
<g>
</g>
<g>
</g>
<g>
</g>
<g>
</g>
<g>
</g>
<g>
</g>
<g>
</g>
<g>
</g>
<g>
</g>
<g>
</g>
</svg>
